<svg id="Layer_1" data-name="Layer 1" xmlns="http://www.w3.org/2000/svg" viewBox="0 0 512 512"><defs><style>.cls-1{fill:#707070;}</style></defs><title>speech-bubble-9-handdrawn</title><path class="cls-1" d="M10.63,78.26A82.2,82.2,0,0,0,5.56,92.44a69.81,69.81,0,0,0-2.12,12.82c-.37,5.35-.24,9.83-.28,15.34C3.1,172.64,3,225.47,3,277.89c0,47.57-.9,93.14-1.62,74.5,0-1.84-.1-6.79-.17-11.24C1,313,.76,284.63.53,254.87l.6-28.43c0-5.69,0-19.25,0-29.24-.16,0-.34-3.37-.46.8-.39,13.92-.58,10.14-.59-18.9,0-18.88-.07-38.38-.11-57.5v-10.7l.19-4.31A72.48,72.48,0,0,1,19.35,61.07C25,54.63,33.33,49.25,32,50.33A75.88,75.88,0,0,0,10.63,78.26ZM216.42,37.91l-7.67.44,68.38.23L301,38.41c35.94-.59,20-1.61-24.87-2.06-47.77-.48-98.94-.24-148.31-.35H88l-4.43.18L208.73,38ZM512,446.05l-.21,2.91a34.85,34.85,0,0,1-1.21,5.83A30.76,30.76,0,0,1,484,475.87a30.13,30.13,0,0,1-22.32-7.13l-1.7-1.5-1-1-1.87-1.87-3.75-3.75-6.8-6.73-26.79-26.51-27.19-.14-28.25-.38-48.66-.35,1.64.19c-5.54.24-8.47.6-17.18.68-17.32.16-35.72.14-53.68-.19l-2.51,0-3.25-.19a52.23,52.23,0,0,1-7.06-.71,56.33,56.33,0,0,1-7.61-1.54,54.16,54.16,0,0,1-7.9-2.5,72.73,72.73,0,0,1-29.07-20,50.55,50.55,0,0,0,5.12,4.08,70.33,70.33,0,0,1-18.62-28.48,43.43,43.43,0,0,1-2.47-9.91c0-1.27,2.13,5.79,3,6.92a71.58,71.58,0,0,1-3.37-18l-.21-4.4,0-3.6c-6.75.17-12.61.35-17,.54-7.58.32-18.58.47-37.83.37l-27.16-.06L79,360.78c-3.92,3.81-6.88,6.59-8.24,7.66-1.13.88-5.75,5.28-11.21,10.52l-8.48,8.15c-1.56,1.44-2.37,2.42-4.66,4.28a22,22,0,0,1-6.23,3.68c-5.46,2-8.71,1.48-6,1.26a23.57,23.57,0,0,0,9.67-4,29.11,29.11,0,0,0,3.89-3.39l2.1-2.27,39.44-39.78,58-.27,25.13-.16q0-1.3,0-2.6l-84.21.43-2,2L61.63,371,49,383.65l-3.16,3.17a23.47,23.47,0,0,1-4.13,3.34,20.14,20.14,0,0,1-10.4,3.16,20.67,20.67,0,0,1-21.14-20.42q0-4.43,0-8.82c-.06-11.66-.12-23.13-.19-34.3,0-8.61,0-19.86,0-29.9,0-41.15.1-80.39.15-123,0-5.51.13-18.79.25-21.93.22-6,.48-7.28.76-11,0-8.13.07-17.77.12-29.23l.24,9.29c.07-6-.24-11.51.15-17.4a59.59,59.59,0,0,1,3.25-16.55,62.77,62.77,0,0,1,44.5-40.66,66.14,66.14,0,0,1,15.77-1.85l15.9.08,3.71-.37,47.82.06-10.59.12c.63.32,5.95.61.07.81-4.65.16-22.69.27-35.54.3-13.82.07-19.66-.08-23.71.38A65.91,65.91,0,0,0,59.59,51a58.69,58.69,0,0,0-18,8,55.71,55.71,0,0,0-11.32,9.81A23.22,23.22,0,0,0,27,73.18c-.65,1.3.67,0,.34.83-.22.6.83-.5,1.46-.93,1.26-1.08,5.75-7.64,17.69-14.3A59.43,59.43,0,0,0,31.29,70.94,55.09,55.09,0,0,0,21.4,86l.66-2.12a65.25,65.25,0,0,0-3.76,9,62.27,62.27,0,0,0-1.68,7c-1.44,8.91-.48,18.77-.49,28l.58,24.84c.27,9.39.58,3.86.83-8,.09-5.93.2-13.42.31-21.42,0-4,.07-8.13.1-12.24l.31-5.77.83-5.58A58,58,0,0,1,31.15,74.51,57.15,57.15,0,0,1,54,58.1a56.06,56.06,0,0,1,13.76-3.48c2.36-.33,4.72-.31,7.13-.46H113l51,.11-81.39.22.06.14,27,.07c17.75,0,30.92,0,42,.32,10.16.26,26.87.3,49.71.25,27.58-.06,65.56-.33,85.21.25,7.38.22,1.19.56,1.19.83H365l-37.17,2.07,15.45.14c-46,.2-23.19,1.1-60.85,1.42l36.55.32c-12,.28-26.24.49-19.27.94,5.44.36-17.3.81-24.81,1.24-3,.17,3.13.38,1.47.56a103.41,103.41,0,0,1-12.76.63c-19.47.1-28.61.81-59.31.3l-14.46,0-74,.14L79.25,64l-4.6,0-3.58.17a43.9,43.9,0,0,0-7,1,44.56,44.56,0,0,0-13.28,5.24,47,47,0,0,0-22.09,30.43l-.8,5-.25,5.1v13c0,8.64,0,17.24,0,25.7.08,40,.16,79.61.25,119.65q0,34.65,0,69.47l0,34.12c0,1.29.51,1.73,1.54,2.43a2.66,2.66,0,0,0,2.9,0c.19,0,.34-.28.56-.42a7.22,7.22,0,0,0,.93-.88l1.24-1.24,5-5,8.91-9,31.91-32.22,59.14.08,32.35.31q0-7.4,0-14.68c0-14.78,0-30,0-44.8q0-5.54,0-11A79.3,79.3,0,0,1,173.53,244a71,71,0,0,1,8-22.43l3.57-5.74a79.06,79.06,0,0,1,5.61-7.12A68.18,68.18,0,0,1,232.69,186a66.09,66.09,0,0,0-12.76,3.78,64.91,64.91,0,0,1,16.44-3.32c2.83,0,.62,0-8.53,2.27-4.14,1.19.64.2-.21.6-1.11.54-3.74,1.24-10.4,4.14l-5.64,2.89c-2,1.35-4.49,2.62-6.95,4.57a68.06,68.06,0,0,0-16.42,17,62.58,62.58,0,0,0-10,26.41,37.25,37.25,0,0,0-.38,8.1c.1,1.51.25,1.65.46-.07.31-2.5.5-2.54.57-.64,0,1,0,2.4,0,4.25l.21,6.35c.26,9.93.42,25.44.4,43.1,0,9.8,0,19.63,0,29.46v14.73A80.64,80.64,0,0,0,180.71,365c.41,2.22,1.14,4.45,1.7,6.49s1.49,3.76,2,5.09a73.19,73.19,0,0,0,6.05,11,68.43,68.43,0,0,0,12.83,14.09c10.79,9,26,14.17,37.11,14.39,4.44.35,9.54.17,11.64.31,14.11.47,13.88.48,34.48.06l-31.13-1.33a11.48,11.48,0,0,1-3.87-.57h40l13.28.15,120.28-.17,31.17,31.14,4.78,4.71a3.18,3.18,0,0,0-.39-.55l-35.44-35.6-81-.08-40.59.07c-26.8,0-34.46-.16-31-.91l-20.28.19c-6.2,0-12.11.34-18-.68a59.87,59.87,0,0,1-23.1-8.62A61.55,61.55,0,0,1,183,358.22c-.68-17.79-.45-34.8-.76-51.79,0-11.45-.08-26.89-.13-40.51,0-5.31-.11-10.59.27-16.08a62.69,62.69,0,0,1,22.36-42,59.08,59.08,0,0,1,18.85-10.53,66.23,66.23,0,0,1,7.65-2.13l6-.85c6.76-.3,8.4-.07,5.19.41a50.62,50.62,0,0,0-10.78,2.83,54.31,54.31,0,0,0-17.07,6.79c-3.39,2.21-4.6,3.19-2.77,2.37a60,60,0,0,0-19.13,20.62,59,59,0,0,0-7.28,26.83c0,19.2,0,38.26,0,57.32l-.09-2.45c-.06,5.72-.12,11.39-.18,17.17.06,9.71-.14,19.56.13,29.15a57.5,57.5,0,0,0,7.94,27,58.83,58.83,0,0,0,46.35,29c4.94.38,10.43.15,15.31.22,20.09.09,25.81.07,23.59-.26-4.11-.62,18.32-.69,33.92-.85L427,409.74l12.75,12.65,19,18.86,9.58,9.54c1.53,1.46,3.34,3.46,4.64,4.49a12.65,12.65,0,0,0,4.51,2.53c6.67,2.25,14.67-2.27,16.24-8.83.8-2.88.37-7.72.44-12s-.07-8.6-.11-12.82c0-6.51,0-15,0-22.6,0-31.11.1-60.76.15-93,0-4.16.13-14.2.25-16.57.22-4.53.48-5.5.76-8.28,0-6.14.07-13.43.12-22.09l.24,7c0-4.49,0-8.82-.07-13l-.35-5.92-.92-5.69a57.64,57.64,0,0,0-8.51-20.13,58.33,58.33,0,0,0-35.23-24.52,16.92,16.92,0,0,0-2.69-.16c-4.83-.93-9.59-1-15.5-1l-20.07,0,8-.12c-.48-.32-4.49-.61,0-.81l11.11-.2c5.11,0,10.82-.2,15.47.67a54,54,0,0,1,11.05,2.78c2.6.83,4.25,1.59,5.63,2.12a44.4,44.4,0,0,1,8.48,4.67,61.08,61.08,0,0,1,10.89,9.54,66.25,66.25,0,0,1,6.72,8.84c1.38,1.91,1.85,3,2.23,3.38.7.86.32-.53.84,0,.37.35,0-.79,0-1.43-.63-1.16-3.07-6.77-10.32-14.79,8,8.51,12.21,15.82,15.26,25.6a11.45,11.45,0,0,0-.81-1.58c.65,2.21,1.42,5,1.88,7.53s.76,4.71.83,5.63c1,14.38.88,29.62,1.43,40.3.27,7.09.58,2.92.83-6,.09-4.48.2-10.15.31-16.19s.28-12.31-.19-18.85a64.46,64.46,0,0,0-43.28-54.35c-7.67-2.72-16.21-3.59-24-3.5L396,191.32l30.76-.11c5.21,0,10-.21,15.68.18a76.12,76.12,0,0,1,8.16,1,79.4,79.4,0,0,1,7.94,2.17v-.15A68.1,68.1,0,0,0,437,190.88c-13.42,0-23.37,0-31.73-.32-7.68-.26-20.31-.3-37.57-.25-20.84.06-49.55.33-64.4-.25-5.58-.22-.9-.56-.9-.83H244l28.09-2.07L260.43,187c34.79-.2,17.53-1.1,46-1.41l-27.62-.32c9.08-.28,19.83-.49,14.56-.94-4.11-.36,13.07-.81,18.76-1.24,2.29-.17-2.37-.38-1.11-.56a59.37,59.37,0,0,1,9.64-.63c14.72-.1,21.63-.81,44.83-.3l10.93,0,38-.1c0-8.33,0-16.66,0-24.85,0-9.77.08-19.38.12-28.69q.06-7,.11-13.7l0-3.34-.1-2.76a30.48,30.48,0,0,0-.46-5.3A44.63,44.63,0,0,0,409.79,89,52.21,52.21,0,0,0,399.6,74.9a50.76,50.76,0,0,0-24-13.2,50.59,50.59,0,0,1,15.29,5.6,52.1,52.1,0,0,0-18.47-7.14c-1.32-.31-1.48-.45-.14-.37l3.17.29c1.42.34,3.27.66,5.52,1.28,4.06,1.37-.42-.53.49-.38,1.18.28,4,.57,10.63,4.14a48.44,48.44,0,0,1,12,9.33,52.6,52.6,0,0,1,12.29,21.28,61.79,61.79,0,0,1,2.38,15.89c.16,5.85.31,11.32.44,15.81.33,8.94.73,13.83,1,9.62.59-9.88,1.16,11.33,1.33,44.47h2.77c0-9,0-18.16-.06-26.87,0-14-.05-28.16-.08-42.23.17-13.8-4.14-27.54-12.7-38.05A59.47,59.47,0,0,0,390.3,57.49a58.32,58.32,0,0,0-16.72-5.18c-8.43-1.07-10.65-1.06-6.48-1.3l4.13-.17,3.53.14a46.94,46.94,0,0,1,7,.69A64.57,64.57,0,0,1,404.12,63c4.22,3.59,6,5,4.09,2.91a61.94,61.94,0,0,1,18.21,34.6c1.21,6.56.86,13.12.92,19.42s0,12.75,0,19.1c0,14.21,0,28.31.06,42.43h4.87c2.47,0,4.26-.08,7.28.1a65.06,65.06,0,0,1,8.47.73A56.68,56.68,0,0,1,456.4,184a60,60,0,0,1,8.12,2.64,72.67,72.67,0,0,1,28,19.39,74.5,74.5,0,0,1,18.75,41.48c.77,8.55.42,14.51.5,21.12s0,13,0,19.42c.08,30.26.16,60.17.25,90.43q0,26.19,0,52.5v13.15C512,444.79,512,444.91,512,446.05ZM421.52,185c0,.13,0,.26,0,.4h2.76c0-.14,0-.28,0-.41Zm-9.58.36h2.45c0-.12,0-.24,0-.36h-6.33l-24.59.08L368.7,185l-1.88.2Zm52.88,5.42-6.32-2.53c-2.19-.63-4.47-1.36-7.16-1.92l-5.9-.91c-2-.21-4-.25-6-.37-3.95-.16-7,0-10.6-.07h-1.39c0,.14,0,.29,0,.43l7,0c1.83,0,3.74,0,6,.15a50.45,50.45,0,0,1,6.53.57,70.23,70.23,0,0,1,12.77,3ZM77.23,60.23c5.31.13,9.88.36,16.07.37l54.7,0,32.53-.08,19.54.1,2.49-.2L83.18,60.07ZM15.31,340.83c-.1-14.84-.21-31.94-.32-48.92,0,12.87,0,23.77,0,34.67l0,.8c0-5.26-.06-10.53-.15-25.85-.07,17.38-.12,27.37-.14,33.4.07,7.36.13,14.27.19,21,0,3.39.08,6.74.11,10.1.07,2.28.08,4.59.21,6.83-.11-3.28.14-7.39.07-11.79C15.28,355.11,15.29,348.25,15.31,340.83Zm157.06-1c0-.14,0-.28,0-.42l-86.18.09L57,368.75l-6.24,6.32a5.29,5.29,0,0,0,.7-.55l34.87-34.8Zm327.06,92.76c-.1-11.22-.21-24.14-.32-37,0,9.73,0,18,0,26.2l0,.61c0-4-.06-8-.15-19.54-.07,13.13-.12,20.69-.14,25.24.07,5.56.13,10.79.19,15.91a17.91,17.91,0,0,1-5.55,14.5A17.24,17.24,0,0,0,499.19,448C499.62,443.18,499.35,438.23,499.43,432.55Zm-14.77-65c.22,22.5.44,44,.65,65.22.07,3.36.14,7.1.17,8.49.71,14.09,1.62-20.36,1.62-56.31.06-39.62.13-79.55.19-118.88,0-4.06.06-7.92,0-10.84a43.88,43.88,0,0,0-.64-6.81,33.14,33.14,0,0,0-2-7.58,43.7,43.7,0,0,0-10.25-14.52c-.63-.53,2.25,3.23,4.12,6.83a50.4,50.4,0,0,1,5,14.75,57.81,57.81,0,0,1,.71,8.14q0,5.35,0,10.77c0,14.45.07,29.19.11,43.46,0,21.95.2,24.8.59,14.28.12-3.15.3-.57.46-.6,0,7.56,0,17.8,0,22.1Zm-212.33,39,12.78,1.08,50.43,0c23.39.14,38.92-.12,57.91-.26l34.65-.19L471,449.74l1.73,1.57a16,16,0,0,0,1.93,1.63,7.41,7.41,0,0,0,3,1.48c.8.12-.1-.14-1.41-1.19a16.37,16.37,0,0,1-1.71-1.56l-2.93-3.11-6.11-6.46c-3.93-4.16-7.22-7.68-7.86-8.56-1.08-1.49-4.76-5.36-9.55-10.25l-18.83-19-13.37,0c-14.55-.1-22.86.05-28.59.37-6,.33-15.32.65-26.12.93-4.41.11-20.3.18-24.5.11-28-.5-56.15-.11-78.94-.13ZM310.47,207l-18.06.17c-27.16.59-15.14,1.61,18.8,2.05,36.1.48,74.78.24,112.1.35l14.84,0a46.32,46.32,0,0,1,11.44,1.58,19.12,19.12,0,0,1,2.51.52,50.29,50.29,0,0,0-8.82-2.17c-1.5-.3-3-.25-4.56-.43-1.36-.17-3.77-.11-5.61-.18l-23.65-.46-47.3-.92-5.81.1,5.8-.44Zm70.35,85.76c-2.21-.16-4.9.68-6.84,1.27a3.26,3.26,0,0,1-1.33.13,7.11,7.11,0,0,1-5.43,3.18,12,12,0,0,0-1.47,3c0,.41,0,.78,0,1.25a52.79,52.79,0,0,0,1.38,8.43,5.79,5.79,0,0,0,1.91,3.22h0c2.58,2.06,6.89,1.09,10.7,1.12a26.36,26.36,0,0,0,4.24-.14,12.09,12.09,0,0,0,4.65-6.45,19.35,19.35,0,0,0-1.25-7.7,31.3,31.3,0,0,0-3.64-5.9A12,12,0,0,0,380.83,292.77Zm-28.43,8a12,12,0,0,0-3.39-5.46c-2-1.42-4.51-2.47-6.65-2.21a2.57,2.57,0,0,1-2.45-.91,12,12,0,0,0-1.3.22,12.16,12.16,0,0,1-5.42,4.59c-1.08.45-2,.7-2.75,1.1a11.85,11.85,0,0,0-1.55,4.56c0,1.12.05,2.24.07,3.37a12.33,12.33,0,0,0,1,3.25,9.59,9.59,0,0,1,.5,1,12.47,12.47,0,0,0,1.48,2.05,3.23,3.23,0,0,1,1.5.41c2.09,1.15,4,2.47,6.46,2.6,2.79.15,5.71-.94,8.41-1.7a12.16,12.16,0,0,0,3.94-5.46c0-.07,0-.11,0-.18A54.7,54.7,0,0,0,352.39,300.82Zm-38.3-.8c-.59-3.09-1.8-3.9-4.61-4.8a13.69,13.69,0,0,1-2.88-1.31c-3.76,0-7.2.45-10.15,3.38a12.77,12.77,0,0,0-3.89,6.81,5.72,5.72,0,0,0,0,1.23c0,.21,0,.42.06.62a21.45,21.45,0,0,0,1.06,3.51c.11.23.3.42.43.65a2.75,2.75,0,0,1,1.17,1.3c.83,1.87,4.94,3.76,6.87,4.29a13.21,13.21,0,0,0,9.26-1.5,12.2,12.2,0,0,0,2.13-1.87c0-.06,0-.11,0-.17.61-1.23-.77-4.45-.44-6.12C313.54,303.89,314.53,302.31,314.09,300Z"/></svg>